<?xml version="1.0" encoding="utf-8"?>
<!-- Generator: Adobe Illustrator 25.4.1, SVG Export Plug-In . SVG Version: 6.00 Build 0)  -->
<svg version="1.1" id="Capa_1" xmlns="http://www.w3.org/2000/svg" xmlns:xlink="http://www.w3.org/1999/xlink" x="0px" y="0px"
	 viewBox="0 0 805 600" style="enable-background:new 0 0 805 600;" xml:space="preserve">
<style type="text/css">
	.st0{fill:#FFFFFF;}
	.st1{fill:#4F8098;}
	.st2{fill:#7C7D52;}
	.st3{fill:#77A5BA;}
	.st4{fill:#86AEC1;}
	.st5{fill:#93B7C8;}
	.st6{fill:#A6A867;}
	.st7{fill:#E3DC95;}
	.st8{fill:#F2EECA;}
	.st9{fill:#91B7C8;}
	.st10{fill:#A5C3D1;}
	.st11{fill:#C3D7E0;}
	.st12{fill:#C4C27E;}
	.st13{fill:#EAE5B0;}
	.st14{fill:#F4F2D9;}
	.st15{font-family:'SukhumvitSet-Text';}
	.st16{font-size:12px;}
	.st17{enable-background:new    ;}
</style>
<rect id="backgorund" class="st0" width="805" height="600"/>
<path class="st1" d="M403.5,157c79,0.6,142.5,65,142,144c-0.6,79-65,142.5-144,142c-46.7-0.3-90.3-23.4-116.8-61.9l58.4-39.6
	c22.9,32.8,68.1,40.9,101,17.9c32.8-22.9,40.9-68.1,17.9-101c-13.4-19.1-35.1-30.7-58.4-31V157z"/>
<path class="st2" d="M283.6,379.4c-43.9-65.7-26.2-154.5,39.5-198.3c23.2-15.5,50.5-23.9,78.4-24.1v70.5c-40,0.6-72,33.5-71.5,73.5
	c0.2,13.8,4.3,27.3,11.9,38.9L283.6,379.4z"/>
<path class="st3" d="M403.5,84.5c119,0.6,215,97.5,214.5,216.5c-0.3,58.5-24.3,114.3-66.6,154.8l-48.5-51.2
	c57.8-55.5,59.6-147.3,4.1-205c-27.1-28.2-64.5-44.3-103.6-44.6V84.5z"/>
<path class="st4" d="M550,457.1c-57.6,54.1-140.3,72.3-215.3,47.4l22.5-66.8c50.3,16.6,105.6,4.4,144.3-31.8L550,457.1z"/>
<path class="st5" d="M332.7,503.9c-43.9-15-81.8-43.8-108-82.1l58.4-39.6c17.6,25.5,42.9,44.8,72.2,54.9L332.7,503.9z"/>
<path class="st6" d="M223.6,420.1c-8.3-12.4-15.3-25.6-20.9-39.4l65.5-26.1c3.7,9.1,8.3,17.8,13.8,25.9L223.6,420.1z"/>
<path class="st7" d="M201.9,378.8c-22.9-58.2-19.3-123.5,9.7-178.9l62.3,33c-19.4,37.1-21.7,80.8-6.5,119.8L201.9,378.8z"/>
<path class="st8" d="M212.6,198.2c37.4-69.7,109.9-113.3,188.9-113.7V155c-53,0.4-101.5,29.6-126.6,76.2L212.6,198.2z"/>
<path class="st9" d="M403.5,12c20.2,0.1,40.2,2.3,59.9,6.5l-15.2,68.9c-14.7-3.2-29.7-4.8-44.8-4.9V12z"/>
<path class="st9" d="M465.4,18.9c19.7,4.4,38.8,10.9,57.1,19.3l-29.6,64c-13.7-6.3-28-11.1-42.7-14.4L465.4,18.9z"/>
<path class="st9" d="M524.3,39c18.3,8.5,35.6,18.9,51.7,31.1l-42.7,56.1c-12-9.1-25-16.8-38.6-23.2L524.3,39z"/>
<path class="st9" d="M577.6,71.3c16,12.3,30.7,26.1,43.8,41.5l-53.7,45.6c-9.8-11.4-20.8-21.8-32.7-31L577.6,71.3z"/>
<path class="st9" d="M622.6,114.3c13,15.4,24.3,32.1,33.8,49.9l-62.3,33c-7.1-13.3-15.6-25.8-25.3-37.3L622.6,114.3z"/>
<path class="st9" d="M657.4,166c9.4,17.8,16.9,36.6,22.3,56l-67.9,18.9c-4.1-14.5-9.7-28.5-16.7-41.8L657.4,166z"/>
<path class="st9" d="M680.3,223.9c5.3,19.4,8.6,39.4,9.8,59.5l-70.4,3.8c-0.9-15-3.3-29.9-7.3-44.4L680.3,223.9z"/>
<path class="st9" d="M690.1,285.4c1,20.1-0.1,40.3-3.3,60.2l-69.6-11.4c2.4-14.9,3.2-29.9,2.4-45L690.1,285.4z"/>
<path class="st9" d="M686.5,347.6c-3.3,19.9-8.7,39.3-16.1,58.1l-65.5-26.1c5.5-14,9.5-28.6,12.1-43.4L686.5,347.6z"/>
<path class="st9" d="M669.7,407.5c-7.5,18.7-17,36.5-28.2,53.3l-58.4-39.6c8.4-12.5,15.5-25.8,21.1-39.8L669.7,407.5z"/>
<path class="st9" d="M640.3,462.4c-11.4,16.6-24.4,32-39,45.9l-48.5-51.2c10.9-10.4,20.7-21.9,29.2-34.3L640.3,462.4z"/>
<path class="st10" d="M599.8,509.8c-14.7,13.8-30.8,26-48,36.5l-36.3-60.4c12.9-7.8,24.9-17,35.9-27.3L599.8,509.8z"/>
<path class="st10" d="M550.1,547.3c-17.3,10.3-35.6,18.8-54.7,25.3l-22.5-66.8c14.2-4.9,27.9-11.2,40.9-18.9L550.1,547.3z"/>
<path class="st10" d="M493.5,573.2c-19.1,6.4-38.9,10.7-58.9,13l-7.6-70.1c15-1.7,29.7-4.9,44-9.7L493.5,573.2z"/>
<path class="st10" d="M432.6,586.4c-20,2.1-40.2,2.1-60.3,0l7.6-70.1c15,1.6,30.1,1.6,45,0L432.6,586.4z"/>
<path class="st10" d="M370.4,586.2c-20-2.2-39.8-6.6-58.9-13l22.5-66.8c14.3,4.7,29,8,44,9.7L370.4,586.2z"/>
<path class="st11" d="M309.6,572.6c-19.1-6.5-37.4-15-54.7-25.3l36.3-60.4c12.9,7.7,26.6,14,40.9,18.9L309.6,572.6z"/>
<path class="st11" d="M253.2,546.3c-17.2-10.4-33.3-22.7-48-36.5l48.5-51.2c11,10.3,23,19.4,35.9,27.3L253.2,546.3z"/>
<path class="st11" d="M203.7,508.4c-14.6-13.9-27.7-29.3-39-45.9l58.4-39.6c8.5,12.4,18.3,23.9,29.2,34.3L203.7,508.4z"/>
<path class="st12" d="M163.6,460.8c-11.3-16.7-20.7-34.6-28.2-53.3l65.5-26.1c5.6,14,12.7,27.3,21.1,39.8L163.6,460.8z"/>
<path class="st13" d="M134.6,405.7c-7.4-18.7-12.8-38.2-16.1-58.1l69.6-11.4c2.5,14.8,6.5,29.4,12.1,43.4L134.6,405.7z"/>
<path class="st13" d="M118.1,345.6c-3.2-19.9-4.3-40.1-3.3-60.2l70.4,3.8c-0.7,15,0.1,30.1,2.4,45L118.1,345.6z"/>
<path class="st13" d="M115,283.4c1.2-20.1,4.4-40.1,9.8-59.5l67.9,18.9c-4,14.5-6.4,29.4-7.3,44.4L115,283.4z"/>
<path class="st13" d="M125.3,222c5.5-19.4,12.9-38.2,22.3-56l62.3,33c-7,13.3-12.6,27.4-16.7,41.8L125.3,222z"/>
<path class="st14" d="M148.5,164.2c9.5-17.8,20.8-34.5,33.8-49.9l53.7,45.6c-9.7,11.5-18.2,24-25.3,37.3L148.5,164.2z"/>
<path class="st14" d="M183.6,112.8c13.1-15.3,27.8-29.2,43.8-41.5l42.7,56.1c-11.9,9.2-22.9,19.5-32.7,31L183.6,112.8z"/>
<path class="st14" d="M229,70.1C245.1,58,262.4,47.6,280.7,39l29.6,64c-13.6,6.4-26.6,14.2-38.6,23.2L229,70.1z"/>
<path class="st14" d="M282.5,38.2c18.3-8.4,37.5-14.8,57.1-19.3l15.2,68.9c-14.7,3.3-29,8.1-42.7,14.4L282.5,38.2z"/>
<path class="st14" d="M341.6,18.5c19.7-4.3,39.8-6.4,59.9-6.5v70.5c-15.1,0.1-30.1,1.7-44.8,4.9L341.6,18.5z"/>
<text transform="matrix(0.8835 0.4684 -0.4684 0.8835 481.7301 346.5323)" class="st15 st16">Arábica</text>
<text transform="matrix(0.8835 0.4684 -0.4684 0.8835 288.091 243.8715)" class="st15 st16">Robusta</text>
<text transform="matrix(0.929 -0.3701 0.3701 0.929 555.3226 243.4158)" class="st15 st16">América</text>
<text transform="matrix(0.215 0.9766 -0.9766 0.215 434.8099 465.3904)" class="st15 st16">África</text>
<text transform="matrix(0.6052 -0.7961 0.7961 0.6052 290.1103 454.4559)" class="st15 st16">Asia</text>
<text transform="matrix(0.8835 -0.4684 0.4684 0.8835 228.0359 397.0226)" class="st15 st16">América</text>
<text transform="matrix(0.9985 5.413902e-02 -5.413902e-02 0.9985 208.5372 293.4895)" class="st15 st16">África</text>
<text transform="matrix(0.5156 0.8569 -0.8569 0.5156 300.6135 138.4225)" class="st15 st16">Asia</text>
<text transform="matrix(0.1081 -0.9941 0.9941 0.1081 432.3193 62.8125)" class="st15 st16">Bolivia</text>
<text transform="matrix(0.3193 -0.9477 0.9477 0.3193 480.5694 80.825)" class="st15 st16">Colombia</text>
<text transform="matrix(0.5156 -0.8569 0.8569 0.5156 524.1423 105.5873)" class="st15 st16">Costa Rica</text>
<text transform="matrix(0.6877 -0.726 0.726 0.6877 567.1006 132.0499)" class="st15 st16">Ecuador</text>
<text transform="matrix(0.8277 -0.5612 0.5612 0.8277 593.6077 175.2587)" class="st15 st16">El Salvador</text>
<text transform="matrix(0.929 -0.3701 0.3701 0.929 616.9874 218.8463)" class="st15 st16">Guatemala</text>
<text transform="matrix(0.9868 -0.1618 0.1618 0.9868 635.1815 265.9072)" class="st15 st16">Jamaica</text>
<text transform="matrix(0.9985 5.413891e-02 -5.413891e-02 0.9985 632.9042 316.498)" class="st15 st16">Nicaragua</text>
<text transform="matrix(0.9635 0.2675 -0.2675 0.9635 627.9864 366.7572)" class="st15 st16">Panamá</text>
<text transform="matrix(0.8835 0.4684 -0.4684 0.8835 615.4865 417.4457)" class="st15 st16">Peru</text>
<text transform="matrix(0.7622 0.6474 -0.6474 0.7622 575.4404 452.1451)" class="st15 st16">Venezuela</text>
<text transform="matrix(0.6052 0.7961 -0.7961 0.6052 543.627 492.2585)" class="st15 st16">Etipoía</text>
<text transform="matrix(0.4199 0.9076 -0.9076 0.4199 500.0468 520.3706)" class="st15 st16">Kenia</text>
<text transform="matrix(0.215 0.9766 -0.9766 0.215 446.9886 515.7211)" class="st15 st16">Mozambique</text>
<text transform="matrix(-1.836970e-16 -1 1 -1.836970e-16 406.5 573.8604)" class="st15 st16">Tanzania</text>
<text transform="matrix(0.215 -0.9766 0.9766 0.215 348.2736 564.96)" class="st15 st16">Zambia</text>
<text transform="matrix(0.4199 -0.9076 0.9076 0.4199 295.0309 541.8165)" class="st15 st16">India</text>
<text transform="matrix(0.6052 -0.7961 0.7961 0.6052 238.9984 521.6922)" class="st15 st16">Indonesia</text>
<text transform="matrix(0.7622 -0.6474 0.6474 0.7622 199.8267 477.4004)" class="st15 st16">Yemen</text>
<text transform="matrix(0.8835 -0.4684 0.4684 0.8835 169.1364 428.2491)" class="st15 st16">Brasil</text>
<text transform="matrix(0.9635 -0.2675 0.2675 0.9635 144.0679 375.9047)" class="st15 st16">Angola</text>
<text transform="matrix(0.9985 -5.413902e-02 5.413902e-02 0.9985 128.8049 318.8452)" class="st15 st16">Camerún</text>
<text transform="matrix(0.9868 0.1618 -0.1618 0.9868 128.8048 247.4467)" class="st17"><tspan x="0" y="0" class="st15 st16">Costa de </tspan><tspan x="0" y="28.8" class="st15 st16">Marfil</tspan></text>
<text transform="matrix(0.929 0.3701 -0.3701 0.929 149.0208 203.3106)" class="st15 st16">Uganda</text>
<text transform="matrix(0.8277 0.5612 -0.5612 0.8277 181.255 154.8249)" class="st15 st16">India</text>
<text transform="matrix(0.6877 0.726 -0.726 0.6877 217.8295 110.8617)" class="st15 st16">Java</text>
<text transform="matrix(0.5156 0.8569 -0.8569 0.5156 257.3606 66.5353)" class="st15 st16">Sri Lanka</text>
<text transform="matrix(0.3193 0.9477 -0.9477 0.3193 311.6534 42.903)" class="st15 st16">Sumatra</text>
<text transform="matrix(0.1081 0.9941 -0.9941 0.1081 369.1145 30.025)" class="st15 st16">Vietnam</text>
<image style="overflow:visible;" width="1600" height="1200" xlink:href="../Downloads/mmm.png"  transform="matrix(0.1053 0 0 0.1623 1103.7573 330.8704)">
</image>
</svg>
